<svg width="100" height="100" xmlns="http://www.w3.org/2000/svg">

 <g>
  <title>background</title>
  <rect fill="none" id="canvas_background" height="102" width="102" y="-1" x="-1"/>
 </g>
 <g>
  <title>Layer 1</title>
  <g stroke="null" id="svg_1">
   <path fill="#ffffff" stroke="null" id="svg_2" d="m33.57697,38.125803l34.85034,0c-1.353216,-1.63651 -2.719164,-3.265882 -4.076947,-4.870032l5.808565,-19.255771l-10.90146,5.21441l-8.271812,-3.959925l-8.255124,3.959925l-10.884874,-5.21441l5.808667,19.255771c-1.323168,1.566133 -2.695449,3.201147 -4.077355,4.870032z"/>
   <path fill="#ffffff" stroke="null" id="svg_3" d="m78.480683,51.04517c-2.262332,-3.187226 -4.86256,-6.535911 -7.581623,-9.896636l-39.798291,0c-2.659085,3.281699 -5.275254,6.641669 -7.576869,9.896636c-4.510268,6.348074 -5.392442,14.026299 -2.446559,21.069557c2.962571,7.073752 9.320286,12.318286 17.442367,14.373713c3.977789,0.997797 8.17194,1.511558 12.482532,1.511558c4.294125,0 8.504846,-0.51376 12.482634,-1.511558c8.122081,-2.055427 14.479813,-7.299961 17.442367,-14.38876c2.945883,-7.028211 2.047123,-14.706436 -2.446559,-21.05451zm-27.478442,25.48304c-8.937436,0 -16.194013,-6.605163 -16.194013,-14.706436c0,-8.116335 7.256577,-14.70605 16.194013,-14.70605c8.920952,0 16.194234,6.589715 16.194234,14.70605c0,8.101273 -7.273282,14.706436 -16.194234,14.706436z"/>
   <polygon fill="#ffffff" stroke="null" id="svg_4" points="52.66661071777344,52.753570556640625 49.337974548339844,52.753570556640625 49.337974548339844,60.31060028076172 41.01642990112305,60.31060028076172 41.01642990112305,63.33332824707031 49.337974548339844,63.33332824707031 49.337974548339844,70.8903579711914 52.66661071777344,70.8903579711914 52.66661071777344,63.33332824707031 60.9881591796875,63.33332824707031 60.9881591796875,60.31060028076172 52.66661071777344,60.31060028076172 "/>
  </g>
 </g>
</svg>